<svg id="upsidedown" xmlns="http://www.w3.org/2000/svg" xmlns:xlink="http://www.w3.org/1999/xlink" viewBox="0 0 1526.47 1068.67"><defs><style>.cls-1,.cls-2,.cls-3,.cls-4,.cls-5,.cls-6,.cls-7,.cls-8{stroke:#fff;}.cls-1,.cls-10,.cls-2,.cls-3,.cls-4,.cls-5,.cls-6,.cls-7,.cls-8{stroke-miterlimit:10;}.cls-1,.cls-8{stroke-width:2px;}.cls-2{stroke-width:5px;}.cls-3{stroke-width:4px;}.cls-4,.cls-7{stroke-width:3px;}.cls-5{stroke-width:6px;}.cls-7,.cls-8{fill:none;}.cls-9{mask:url(#mask);}.cls-10{fill:url(#linear-gradient);stroke:url(#linear-gradient-2);}</style><mask id="mask" x="-213" y="-126.67" width="2014" height="2497" maskUnits="userSpaceOnUse"><g id="cityscape"><g id="hk-2"><rect class="cls-1" x="907.85" y="568.68" width="66.62" height="66.62" transform="translate(1180.98 1693.16) rotate(-135)"/><rect class="cls-1" x="907.85" y="474.53" width="66.62" height="66.62" transform="translate(1247.56 1532.42) rotate(-135)"/><rect class="cls-1" x="907.89" y="379.95" width="66.62" height="66.62" transform="translate(1314.51 1371) rotate(-135)"/><line class="cls-1" x1="988.49" y1="413.31" x2="988.49" y2="716.04"/><line class="cls-1" x1="893.62" y1="413.54" x2="894.14" y2="677.11"/><line class="cls-1" x1="941.35" y1="651.23" x2="941.35" y2="367.26"/><line class="cls-1" x1="951.7" y1="376.96" x2="951.7" y2="323.92"/><line class="cls-1" x1="934.88" y1="373.08" x2="934.88" y2="298.05"/></g><g id="hk-1"><ellipse class="cls-1" cx="1062.64" cy="290.47" rx="24.01" ry="26.87"/><rect class="cls-1" x="1038.62" y="288.29" width="48.03" height="332.65" transform="translate(2125.27 909.22) rotate(180)"/><rect class="cls-1" x="1031.28" y="307.17" width="62.7" height="332.65" transform="translate(2125.27 946.99) rotate(180)"/><rect class="cls-1" x="1022.61" y="342.03" width="80.04" height="332.65" transform="translate(2125.27 1016.71) rotate(180)"/><rect class="cls-1" x="1016.61" y="407.4" width="92.05" height="332.65" transform="translate(2125.27 1147.45) rotate(180)"/><rect class="cls-1" x="1009.27" y="506.18" width="106.73" height="332.65" transform="translate(2125.27 1345) rotate(180)"/><line class="cls-1" x1="1070.97" y1="838.82" x2="1070.97" y2="259.24"/><line class="cls-1" x1="1062.64" y1="838.82" x2="1062.64" y2="259.24"/><line class="cls-1" x1="1054.3" y1="838.82" x2="1054.3" y2="259.24"/><path class="cls-1" d="M1044.63,838.82V272.31s0-10.17,2.66-13.07"/><path class="cls-1" d="M1080.65,838.82V272.31s0-10.17-2.67-13.07"/><line class="cls-2" x1="1102.66" y1="828.65" x2="1022.61" y2="828.65"/><line class="cls-2" x1="1102.66" y1="815.4" x2="1022.61" y2="815.4"/><line class="cls-2" x1="1102.66" y1="802.14" x2="1022.61" y2="802.14"/><line class="cls-2" x1="1102.66" y1="788.89" x2="1022.61" y2="788.89"/><line class="cls-2" x1="1102.66" y1="775.63" x2="1022.61" y2="775.63"/><line class="cls-2" x1="1102.66" y1="755.92" x2="1022.61" y2="755.92"/><line class="cls-2" x1="1102.66" y1="742.66" x2="1022.61" y2="742.66"/><line class="cls-2" x1="1102.66" y1="729.41" x2="1022.61" y2="729.41"/><line class="cls-2" x1="1102.66" y1="716.15" x2="1022.61" y2="716.15"/><line class="cls-2" x1="1102.66" y1="702.9" x2="1022.61" y2="702.9"/><line class="cls-2" x1="1102.66" y1="685.92" x2="1022.61" y2="685.92"/><line class="cls-2" x1="1102.66" y1="672.66" x2="1022.61" y2="672.66"/><line class="cls-2" x1="1102.66" y1="659.41" x2="1022.61" y2="659.41"/><line class="cls-2" x1="1102.66" y1="646.15" x2="1022.61" y2="646.15"/><line class="cls-2" x1="1102.66" y1="632.9" x2="1022.61" y2="632.9"/><line class="cls-2" x1="1102.66" y1="613.18" x2="1022.61" y2="613.18"/><line class="cls-2" x1="1102.66" y1="599.93" x2="1022.61" y2="599.93"/><line class="cls-2" x1="1102.66" y1="586.67" x2="1022.61" y2="586.67"/><line class="cls-2" x1="1102.66" y1="573.42" x2="1022.61" y2="573.42"/><line class="cls-2" x1="1102.66" y1="560.16" x2="1022.61" y2="560.16"/><line class="cls-2" x1="1102.66" y1="542.25" x2="1022.61" y2="542.25"/><line class="cls-2" x1="1102.66" y1="528.99" x2="1022.61" y2="528.99"/><line class="cls-2" x1="1102.66" y1="515.74" x2="1022.61" y2="515.74"/><line class="cls-2" x1="1102.66" y1="496.47" x2="1022.61" y2="496.47"/><line class="cls-2" x1="1102.66" y1="483.21" x2="1022.61" y2="483.21"/><line class="cls-2" x1="1102.66" y1="469.96" x2="1022.61" y2="469.96"/><line class="cls-2" x1="1102.66" y1="456.7" x2="1022.61" y2="456.7"/><line class="cls-2" x1="1102.66" y1="443.45" x2="1022.61" y2="443.45"/><line class="cls-2" x1="1087.96" y1="423.37" x2="1038.64" y2="423.37"/><line class="cls-2" x1="1087.96" y1="396.86" x2="1038.64" y2="396.86"/><line class="cls-2" x1="1087.96" y1="383.6" x2="1038.64" y2="383.6"/><line class="cls-2" x1="1087.96" y1="370.35" x2="1038.64" y2="370.35"/><line class="cls-2" x1="1087.96" y1="358.73" x2="1038.64" y2="358.73"/><line class="cls-2" x1="1086.63" y1="334.03" x2="1037.31" y2="334.03"/><line class="cls-2" x1="1086.63" y1="312.24" x2="1037.31" y2="312.24"/></g><g id="hk3"><line class="cls-3" x1="880.37" y1="388.61" x2="810.51" y2="388.61"/><line class="cls-4" x1="880.37" y1="397.9" x2="810.51" y2="397.9"/><line class="cls-4" x1="880.37" y1="407.19" x2="810.51" y2="407.19"/><line class="cls-4" x1="880.37" y1="416.47" x2="810.51" y2="416.47"/><line class="cls-4" x1="880.37" y1="425.76" x2="810.51" y2="425.76"/><line class="cls-4" x1="880.37" y1="435.05" x2="810.51" y2="435.05"/><line class="cls-4" x1="880.37" y1="444.34" x2="810.51" y2="444.34"/><line class="cls-4" x1="880.37" y1="453.63" x2="810.51" y2="453.63"/><line class="cls-4" x1="880.37" y1="462.92" x2="810.51" y2="462.92"/><line class="cls-4" x1="880.37" y1="472.21" x2="810.51" y2="472.21"/><line class="cls-4" x1="880.37" y1="481.5" x2="810.51" y2="481.5"/><line class="cls-4" x1="880.37" y1="490.79" x2="810.51" y2="490.79"/><line class="cls-4" x1="880.37" y1="500.07" x2="810.51" y2="500.07"/><line class="cls-4" x1="880.37" y1="509.36" x2="810.51" y2="509.36"/><line class="cls-4" x1="880.37" y1="518.65" x2="810.51" y2="518.65"/><line class="cls-4" x1="880.37" y1="527.94" x2="810.51" y2="527.94"/><line class="cls-4" x1="880.37" y1="537.23" x2="810.51" y2="537.23"/><line class="cls-4" x1="880.37" y1="546.52" x2="811.58" y2="546.52"/><line class="cls-4" x1="880.37" y1="555.73" x2="820.47" y2="555.88"/><line class="cls-4" x1="880.37" y1="564.98" x2="829.36" y2="565.21"/><line class="cls-4" x1="880.37" y1="574.27" x2="837.62" y2="574.5"/><line class="cls-4" x1="880.37" y1="583.56" x2="846.14" y2="583.79"/><line class="cls-4" x1="880.37" y1="592.85" x2="853.9" y2="593.08"/><line class="cls-4" x1="880.37" y1="611.54" x2="871.44" y2="611.54"/><line class="cls-4" x1="880.09" y1="601.8" x2="863.13" y2="602.03"/></g><g id="hk5"><line class="cls-5" x1="1295.18" y1="1026.41" x2="1295.18" y2="607.25"/><line class="cls-2" x1="1282.25" y1="1026.41" x2="1282.25" y2="607.25"/><line class="cls-3" x1="1271.25" y1="1026.41" x2="1271.25" y2="607.25"/><line class="cls-4" x1="1256.37" y1="1026.41" x2="1256.37" y2="607.25"/><line class="cls-1" x1="1246.67" y1="1026.41" x2="1246.67" y2="607.25"/><line class="cls-6" x1="1240.85" y1="1026.41" x2="1240.85" y2="607.25"/></g><g id="hk6"><g id="hk4"><line class="cls-3" x1="1179.33" y1="930.67" x2="1223.27" y2="930.68"/><line class="cls-4" x1="1179.34" y1="912.24" x2="1223.28" y2="912.25"/><line class="cls-4" x1="1179.34" y1="893.82" x2="1223.28" y2="893.83"/><line class="cls-4" x1="1179.34" y1="875.39" x2="1223.28" y2="875.41"/><line class="cls-4" x1="1179.35" y1="856.97" x2="1223.29" y2="856.98"/><line class="cls-4" x1="1179.35" y1="838.55" x2="1223.29" y2="838.56"/><line class="cls-4" x1="1179.35" y1="820.12" x2="1223.29" y2="820.13"/><line class="cls-4" x1="1179.36" y1="801.7" x2="1223.3" y2="801.71"/><line class="cls-4" x1="1179.36" y1="783.28" x2="1223.3" y2="783.29"/><line class="cls-4" x1="1179.37" y1="764.85" x2="1223.3" y2="764.86"/><line class="cls-4" x1="1179.37" y1="746.43" x2="1223.31" y2="746.44"/><line class="cls-4" x1="1179.37" y1="728" x2="1223.31" y2="728.01"/><line class="cls-4" x1="1179.38" y1="709.58" x2="1223.31" y2="709.59"/><line class="cls-4" x1="1179.38" y1="691.16" x2="1223.32" y2="691.17"/><line class="cls-4" x1="1179.38" y1="672.73" x2="1223.32" y2="672.74"/><line class="cls-4" x1="1179.39" y1="654.31" x2="1223.32" y2="654.32"/><line class="cls-4" x1="1179.39" y1="635.88" x2="1223.33" y2="635.89"/><line class="cls-4" x1="1179.39" y1="617.46" x2="1222.66" y2="617.47"/><line class="cls-4" x1="1179.4" y1="599.18" x2="1217.07" y2="598.9"/><line class="cls-4" x1="1179.4" y1="580.84" x2="1211.48" y2="580.39"/><line class="cls-4" x1="1179.4" y1="562.42" x2="1206.29" y2="561.96"/></g><g id="hk4-2" data-name="hk4"><line class="cls-3" x1="1183.35" y1="930.67" x2="1139.41" y2="930.68"/><line class="cls-4" x1="1183.34" y1="912.24" x2="1139.4" y2="912.25"/><line class="cls-4" x1="1183.34" y1="893.82" x2="1139.4" y2="893.83"/><line class="cls-4" x1="1183.34" y1="875.39" x2="1139.4" y2="875.4"/><line class="cls-4" x1="1183.33" y1="856.97" x2="1139.39" y2="856.98"/><line class="cls-4" x1="1183.33" y1="838.55" x2="1139.39" y2="838.56"/><line class="cls-4" x1="1183.33" y1="820.12" x2="1139.39" y2="820.13"/><line class="cls-4" x1="1183.32" y1="801.7" x2="1139.38" y2="801.71"/><line class="cls-4" x1="1183.32" y1="783.27" x2="1139.38" y2="783.28"/><line class="cls-4" x1="1183.32" y1="764.85" x2="1139.38" y2="764.86"/><line class="cls-4" x1="1183.31" y1="746.43" x2="1139.37" y2="746.44"/><line class="cls-4" x1="1183.31" y1="728" x2="1139.37" y2="728.01"/><line class="cls-4" x1="1183.31" y1="709.58" x2="1139.37" y2="709.59"/><line class="cls-4" x1="1183.3" y1="691.16" x2="1139.36" y2="691.16"/><line class="cls-4" x1="1183.3" y1="672.73" x2="1139.36" y2="672.74"/><line class="cls-4" x1="1183.3" y1="654.31" x2="1139.36" y2="654.32"/><line class="cls-4" x1="1183.29" y1="635.88" x2="1139.35" y2="635.89"/><line class="cls-4" x1="1183.29" y1="617.46" x2="1140.02" y2="617.47"/><line class="cls-4" x1="1183.29" y1="599.18" x2="1145.61" y2="598.9"/><line class="cls-4" x1="1183.28" y1="580.84" x2="1151.2" y2="580.39"/><line class="cls-4" x1="1183.28" y1="562.42" x2="1156.39" y2="561.96"/></g><line class="cls-6" x1="1180.97" y1="531.91" x2="1180.97" y2="477.87"/><line class="cls-4" x1="1167.06" y1="545.87" x2="1194.87" y2="545.87"/></g><g id="roger-center"><ellipse class="cls-1" cx="511.64" cy="582.35" rx="107.57" ry="39.27"/><ellipse class="cls-1" cx="511.64" cy="593.21" rx="107.57" ry="39.27"/><path class="cls-1" d="M402.45,572.32l49.94,15.92a199.56,199.56,0,0,0,118.63.24l51.43-16.16v79.56h-220Z"/><line class="cls-1" x1="514.07" y1="597.39" x2="514.07" y2="554.78"/><line class="cls-1" x1="502.75" y1="554.78" x2="494.66" y2="595.72"/><line class="cls-1" x1="488.05" y1="554.78" x2="472.69" y2="594.05"/><line class="cls-1" x1="453.14" y1="588.2" x2="470.93" y2="556.45"/><line class="cls-1" x1="452.6" y1="560.63" x2="434.81" y2="582.35"/><line class="cls-1" x1="528.63" y1="554.78" x2="537.52" y2="595.72"/><line class="cls-1" x1="544" y1="555.61" x2="558.47" y2="592.44"/><line class="cls-1" x1="561.79" y1="558.12" x2="578.02" y2="586.83"/><line class="cls-1" x1="581.2" y1="563.13" x2="596.35" y2="581.22"/><line class="cls-1" x1="589.29" y1="652.53" x2="589.29" y2="610.91"/><line class="cls-1" x1="574.8" y1="652.53" x2="574.8" y2="610.91"/><line class="cls-1" x1="560.32" y1="652.53" x2="560.32" y2="610.91"/><line class="cls-1" x1="545.83" y1="652.53" x2="545.83" y2="610.91"/><line class="cls-1" x1="531.35" y1="652.53" x2="531.35" y2="610.91"/><line class="cls-1" x1="516.86" y1="652.53" x2="516.86" y2="610.91"/><line class="cls-1" x1="502.38" y1="652.53" x2="502.38" y2="610.91"/><line class="cls-1" x1="487.89" y1="652.53" x2="487.89" y2="610.91"/><line class="cls-1" x1="473.41" y1="652.53" x2="473.41" y2="610.91"/><line class="cls-1" x1="458.92" y1="652.53" x2="458.92" y2="610.91"/><line class="cls-1" x1="444.44" y1="652.53" x2="444.44" y2="610.91"/><line class="cls-1" x1="429.95" y1="652.53" x2="429.95" y2="610.91"/><line class="cls-1" x1="589.29" y1="611.59" x2="429.95" y2="611.59"/></g><g id="cntower"><path class="cls-4" d="M760.6,136.33s-8.17,202.11-11.18,269.28c-2.57,57.35-13.27,228.81-13.27,228.81h53.08S776,462.51,772.47,405.61C768.3,338,760.6,136.33,760.6,136.33Z"/><line class="cls-1" x1="760.69" y1="633.48" x2="760.69" y2="309.64"/><rect class="cls-1" x="734.07" y="247.76" width="54.05" height="27.25" rx="9.23" transform="translate(1522.18 522.76) rotate(-180)"/><rect class="cls-1" x="736.37" y="279.54" width="49.45" height="27.25" rx="8.84" transform="translate(1522.18 586.33) rotate(180)"/><path class="cls-1" d="M736.23,257.66l50.58.24c8.79,0,14.57,7.51,13,16L798.45,281c-1.37,7.3-9.23,17.76-16.43,17.73l-41.41-.2c-7.19,0-15-10.57-16.25-17.88l-1.27-7.14C721.58,265,727.44,257.62,736.23,257.66Z"/><line class="cls-4" x1="796.85" y1="285.78" x2="725.56" y2="285.78"/><rect class="cls-4" x="755.06" y="195.36" width="11.64" height="48.7" transform="translate(1521.76 439.43) rotate(180)"/></g><g id="toronto3"><g id="hk5-2" data-name="hk5"><line class="cls-1" x1="301.51" y1="950.08" x2="301.51" y2="615.82"/><line class="cls-1" x1="289.57" y1="950.08" x2="289.57" y2="615.82"/><line class="cls-1" x1="279.42" y1="950.08" x2="279.42" y2="615.82"/><line class="cls-1" x1="265.68" y1="950.08" x2="265.68" y2="615.82"/><line class="cls-1" x1="256.73" y1="950.08" x2="256.73" y2="615.82"/><line class="cls-1" x1="251.35" y1="950.08" x2="251.35" y2="615.82"/></g><g id="hk3-2" data-name="hk3"><line class="cls-1" x1="305.62" y1="624.18" x2="246.81" y2="624.18"/><line class="cls-1" x1="305.62" y1="633.47" x2="246.81" y2="633.47"/><line class="cls-1" x1="305.62" y1="642.76" x2="246.81" y2="642.76"/><line class="cls-1" x1="305.62" y1="652.05" x2="246.81" y2="652.05"/><line class="cls-1" x1="305.62" y1="661.34" x2="246.81" y2="661.34"/><line class="cls-1" x1="305.62" y1="670.63" x2="246.81" y2="670.63"/><line class="cls-1" x1="305.62" y1="679.92" x2="246.81" y2="679.92"/><line class="cls-1" x1="305.62" y1="689.2" x2="246.81" y2="689.2"/><line class="cls-1" x1="305.62" y1="698.49" x2="246.81" y2="698.49"/><line class="cls-1" x1="305.62" y1="707.78" x2="246.81" y2="707.78"/><line class="cls-1" x1="305.62" y1="717.07" x2="246.81" y2="717.07"/><line class="cls-1" x1="305.62" y1="726.36" x2="246.81" y2="726.36"/><line class="cls-1" x1="305.62" y1="735.65" x2="246.81" y2="735.65"/><line class="cls-1" x1="305.62" y1="744.94" x2="246.81" y2="744.94"/><line class="cls-1" x1="305.62" y1="754.23" x2="246.81" y2="754.23"/><line class="cls-1" x1="305.62" y1="763.52" x2="246.81" y2="763.52"/><line class="cls-1" x1="305.62" y1="772.8" x2="246.81" y2="772.8"/><line class="cls-1" x1="305.62" y1="782.09" x2="247.71" y2="782.09"/><line class="cls-1" x1="307.49" y1="950.78" x2="249.58" y2="950.78"/><line class="cls-1" x1="307.49" y1="792.87" x2="248.68" y2="792.87"/><line class="cls-1" x1="307.49" y1="802.16" x2="248.68" y2="802.16"/><line class="cls-1" x1="307.49" y1="811.45" x2="248.68" y2="811.45"/><line class="cls-1" x1="307.49" y1="820.73" x2="248.68" y2="820.73"/><line class="cls-1" x1="307.49" y1="830.02" x2="248.68" y2="830.02"/><line class="cls-1" x1="307.49" y1="839.31" x2="248.68" y2="839.31"/><line class="cls-1" x1="307.49" y1="848.6" x2="248.68" y2="848.6"/><line class="cls-1" x1="307.49" y1="857.89" x2="248.68" y2="857.89"/><line class="cls-1" x1="307.49" y1="867.18" x2="248.68" y2="867.18"/><line class="cls-1" x1="307.49" y1="876.47" x2="248.68" y2="876.47"/><line class="cls-1" x1="307.49" y1="885.76" x2="248.68" y2="885.76"/><line class="cls-1" x1="307.49" y1="895.05" x2="248.68" y2="895.05"/><line class="cls-1" x1="307.49" y1="904.33" x2="248.68" y2="904.33"/><line class="cls-1" x1="307.49" y1="913.62" x2="248.68" y2="913.62"/><line class="cls-1" x1="307.49" y1="922.91" x2="248.68" y2="922.91"/><line class="cls-1" x1="307.49" y1="932.2" x2="248.68" y2="932.2"/><line class="cls-1" x1="307.49" y1="941.49" x2="248.68" y2="941.49"/></g></g><rect class="cls-1" x="645.88" y="373.6" width="51.05" height="20.7" transform="translate(1342.82 767.91) rotate(180)"/><rect class="cls-1" x="617.98" y="387.84" width="106.85" height="316.96" transform="translate(1342.82 1092.63) rotate(180)"/><rect class="cls-1" x="625.11" y="396.89" width="92.6" height="20.7" transform="translate(1342.82 814.48) rotate(180)"/><rect class="cls-1" x="625.11" y="426.16" width="92.6" height="14.23" transform="translate(1342.82 866.56) rotate(180)"/><rect class="cls-1" x="625.11" y="449.61" width="92.6" height="14.23" transform="translate(1342.82 913.45) rotate(180)"/><rect class="cls-1" x="625.11" y="473.06" width="92.6" height="14.23" transform="translate(1342.82 960.35) rotate(180)"/><rect class="cls-1" x="625.11" y="496.51" width="92.6" height="14.23" transform="translate(1342.82 1007.25) rotate(180)"/><rect class="cls-1" x="625.11" y="519.96" width="92.6" height="14.23" transform="translate(1342.82 1054.14) rotate(180)"/><rect class="cls-1" x="625.11" y="543.41" width="92.6" height="14.23" transform="translate(1342.82 1101.04) rotate(180)"/><rect class="cls-1" x="625.11" y="566.85" width="92.6" height="14.23" transform="translate(1342.82 1147.94) rotate(180)"/><rect class="cls-1" x="625.11" y="590.3" width="92.6" height="14.23" transform="translate(1342.82 1194.84) rotate(180)"/><rect class="cls-1" x="625.11" y="613.75" width="92.6" height="14.23" transform="translate(1342.82 1241.73) rotate(180)"/><rect class="cls-1" x="625.11" y="637.2" width="92.6" height="14.23" transform="translate(1342.82 1288.63) rotate(180)"/><rect class="cls-1" x="625.11" y="660.65" width="92.6" height="14.23" transform="translate(1342.82 1335.53) rotate(180)"/><rect class="cls-1" x="625.11" y="684.1" width="92.6" height="14.23" transform="translate(1342.82 1382.43) rotate(180)"/><line class="cls-1" x1="696.83" y1="387.84" x2="696.83" y2="354.2"/><line class="cls-1" x1="645.78" y1="387.84" x2="645.78" y2="334.79"/><g id="toronto3-2" data-name="toronto3"><g id="hk5-3" data-name="hk5"><line class="cls-1" x1="375.42" y1="880.07" x2="376.61" y2="545.81"/><line class="cls-1" x1="363.27" y1="880.01" x2="364.46" y2="545.75"/><line class="cls-1" x1="352.95" y1="879.96" x2="354.14" y2="545.7"/><line class="cls-1" x1="338.99" y1="879.89" x2="340.18" y2="545.63"/><line class="cls-1" x1="329.88" y1="879.84" x2="331.07" y2="545.59"/><line class="cls-1" x1="324.42" y1="879.82" x2="325.61" y2="545.56"/></g><g id="hk3-3" data-name="hk3"><line class="cls-1" x1="380.75" y1="554.19" x2="320.96" y2="553.9"/><line class="cls-1" x1="380.72" y1="563.48" x2="320.93" y2="563.19"/><line class="cls-1" x1="380.69" y1="572.77" x2="320.89" y2="572.48"/><line class="cls-1" x1="380.65" y1="582.06" x2="320.86" y2="581.76"/><line class="cls-1" x1="380.62" y1="591.34" x2="320.83" y2="591.05"/><line class="cls-1" x1="380.59" y1="600.63" x2="320.79" y2="600.34"/><line class="cls-1" x1="380.56" y1="609.92" x2="320.76" y2="609.63"/><line class="cls-1" x1="380.52" y1="619.21" x2="320.73" y2="618.92"/><line class="cls-1" x1="380.49" y1="628.5" x2="320.69" y2="628.21"/><line class="cls-1" x1="380.46" y1="637.79" x2="320.66" y2="637.5"/><line class="cls-1" x1="380.42" y1="647.08" x2="320.63" y2="646.79"/><line class="cls-1" x1="380.39" y1="656.37" x2="320.59" y2="656.07"/><line class="cls-1" x1="380.36" y1="665.65" x2="320.56" y2="665.36"/><line class="cls-1" x1="380.32" y1="674.94" x2="320.53" y2="674.65"/><line class="cls-1" x1="380.29" y1="684.23" x2="320.49" y2="683.94"/><line class="cls-1" x1="380.26" y1="693.52" x2="320.46" y2="693.23"/><line class="cls-1" x1="380.22" y1="702.81" x2="320.43" y2="702.52"/><line class="cls-1" x1="380.19" y1="712.1" x2="321.31" y2="711.81"/><line class="cls-1" x1="381.49" y1="880.79" x2="322.61" y2="880.5"/><line class="cls-1" x1="382.05" y1="722.88" x2="322.26" y2="722.59"/><line class="cls-1" x1="382.02" y1="732.17" x2="322.22" y2="731.88"/><line class="cls-1" x1="381.99" y1="741.46" x2="322.19" y2="741.17"/><line class="cls-1" x1="381.95" y1="750.75" x2="322.16" y2="750.46"/><line class="cls-1" x1="381.92" y1="760.04" x2="322.13" y2="759.75"/><line class="cls-1" x1="381.89" y1="769.33" x2="322.09" y2="769.04"/><line class="cls-1" x1="381.85" y1="778.62" x2="322.06" y2="778.32"/><line class="cls-1" x1="381.82" y1="787.9" x2="322.03" y2="787.61"/><line class="cls-1" x1="381.79" y1="797.19" x2="321.99" y2="796.9"/><line class="cls-1" x1="381.76" y1="806.48" x2="321.96" y2="806.19"/><line class="cls-1" x1="381.72" y1="815.77" x2="321.93" y2="815.48"/><line class="cls-1" x1="381.69" y1="825.06" x2="321.89" y2="824.77"/><line class="cls-1" x1="381.66" y1="834.35" x2="321.86" y2="834.06"/><line class="cls-1" x1="381.62" y1="843.64" x2="321.83" y2="843.35"/><line class="cls-1" x1="381.59" y1="852.92" x2="321.79" y2="852.63"/><line class="cls-1" x1="381.56" y1="862.21" x2="321.76" y2="861.92"/><line class="cls-1" x1="381.52" y1="871.5" x2="321.73" y2="871.21"/></g></g><rect class="cls-1" x="174.97" y="772.64" width="47.87" height="234.88"/><path class="cls-1" d="M171.85,772.84a11.9,11.9,0,0,0,0,4.16c.44,1.55,19.6,9.34,51.69,1.55,0,0,4.9-1.55,2.22-6.23-2.58-4.51-.44,0-.44,0Z"/><path class="cls-1" d="M225.35,772.39s-5.83,3.5-26.11,3.58c-20.49.09-26.72-3.37-26.72-3.37l26.06-53.75Z"/><line class="cls-1" x1="198.58" y1="775.96" x2="198.58" y2="719.88"/><line class="cls-1" x1="198.58" y1="720.4" x2="214.62" y2="774.92"/><line class="cls-1" x1="185.22" y1="775.44" x2="198.58" y2="720.4"/><line class="cls-1" x1="198.58" y1="718.85" x2="198.58" y2="703.27"/><ellipse class="cls-1" cx="198.58" cy="710.02" rx="1.34" ry="1.56"/><path class="cls-1" d="M216.85,809.76v.35H181.66c0-.11,0-.23,0-.35,0-12.07,7.88-21.86,17.6-21.86S216.85,797.69,216.85,809.76Z"/><rect class="cls-1" x="182.21" y="814.97" width="34.64" height="38.87"/><line class="cls-1" x1="199.53" y1="853.84" x2="199.53" y2="815.66"/><line class="cls-1" x1="182.21" y1="834.41" x2="216.85" y2="834.41"/><rect class="cls-1" x="181.65" y="866.82" width="35.65" height="46.21"/><rect class="cls-1" x="181.65" y="925.49" width="35.65" height="46.21"/><line class="cls-1" x1="181.65" y1="889.15" x2="216.85" y2="889.15"/><line class="cls-1" x1="181.65" y1="949.38" x2="216.85" y2="949.38"/></g><polygon id="hide" points="1359.93 1045.69 1260.4 989.4 1132.24 682.16 1068.24 779.42 947.88 625.88 890.96 651.75 801.69 550.85 742.18 579.31 621.87 598.71 593.4 658.22 554.42 636.69 544.24 649.17 470.29 615.66 445.92 668.57 410.99 641.4 339.58 848.52 220.81 958.37 172.94 1011.41 105.67 1035.99 132.84 1087.74 1359.93 1045.69"/><g id="iceberg"><path class="cls-7" d="M649.65,1269.3l93.15,124.2,108.67-148.78L923.92,1400l165.59-132L870.87,1049.37l66-125.49L845,936.81l-117.73,95.74-66-9.06-49.16,150.07,32.34,95.74,82.8-183.71v-51.75l-64.69-110,24.59-75L860.52,732.41l16.82,195.35L679.4,873.42,524.16,1046.78l86.68,126.78L463.35,1149l-59.51,47.87-99.62-100.91-73.74,29.76,9.06,59.51-73.06,72.72a.71.71,0,0,0,.5,1.21l107.49-.19-33.64-73.74L422,1265.42l-23.28-86.68-67.28-178.53,98.33-125.49,29.75,273,62.1-102.2L436.18,894.12l34.93,23.29,76.33-271.68,41.4,18.11L616,603l133.87-26.19,57.6,187.91-122.9-81.51L660,895.41"/><polygon class="cls-7" points="936.85 923.88 976.6 1152.47 1172.31 1199.44 1261.05 997.81 966.61 733.7 936.85 923.88"/><line class="cls-4" x1="1259.75" y1="996.51" x2="1367.13" y2="1052.14"/><polyline class="cls-7" points="976.96 1152.87 851.47 1244.72 870.87 1049.37"/><polyline class="cls-7" points="542.32 654.57 465.91 621.48 442.62 675.81 403.81 646.06 280.91 1041.94 243.39 991.48 235.84 1124.82 304.19 1096.27 331.36 1000.54 429.69 875.05 442.62 680.99 517.66 758.61 604.99 953.32 676.03 732.7 588.81 664.17 684.55 683.58 750.25 577.06 860.52 732.41 966.61 733.7 751.17 578.14 797.75 549.68 886.2 654.24"/><polyline class="cls-7" points="1124.44 866.95 944.62 623.73 897.13 648.69 868.9 663.52"/><polyline class="cls-7" points="1253.04 985.7 1127.03 688.42 1063.74 784.38 1138.86 889.55"/><path class="cls-7" d="M1000.64,1664.74l165.2-42.25,36.23-66L1376.72,1497l84.09-135.85L1391,1240.84l-176-141,151.63-47.52a.2.2,0,0,1,.23.29L1297.27,1166"/><polyline class="cls-8" points="340.71 849.69 170.36 1014 100.5 1039.87 128.96 1094.21 144.48 1200.29 185.32 1220.97 144.4 1296.4 236.34 1125.26 170.36 1015.29 128.96 1095.5"/><polyline class="cls-7" points="1412.98 1278.56 1512.59 1185.41 1580.6 1173.75 1717 1125.9 1330.91 1111.65 1367.13 1052.14 1532 1074.15 1585.04 1101.32 1669.86 1123.3"/><line class="cls-4" x1="100.58" y1="1040.5" x2="-41.73" y2="1127.18"/></g><line class="cls-7" x1="1260.4" y1="997.16" x2="952.49" y2="1029.5"/></mask><linearGradient id="linear-gradient" x1="1144" y1="-9101.78" x2="1144" y2="-7088.78" gradientTransform="translate(-350 9276)" gradientUnits="userSpaceOnUse"><stop offset="0" stop-color="#dcf5f9"/><stop offset="0.06" stop-color="#d9f3f7" stop-opacity="0.99"/><stop offset="0.12" stop-color="#d1ebf2" stop-opacity="0.96"/><stop offset="0.17" stop-color="#c4dfea" stop-opacity="0.91"/><stop offset="0.22" stop-color="#b1cede" stop-opacity="0.84"/><stop offset="0.27" stop-color="#99b8cf" stop-opacity="0.76"/><stop offset="0.32" stop-color="#7b9cbd" stop-opacity="0.65"/><stop offset="0.37" stop-color="#587da7" stop-opacity="0.52"/><stop offset="0.38" stop-color="#5277a3" stop-opacity="0.5"/><stop offset="0.39" stop-color="#5279a5" stop-opacity="0.52"/><stop offset="0.48" stop-color="#4f8db8" stop-opacity="0.66"/><stop offset="0.58" stop-color="#4d9dc7" stop-opacity="0.78"/><stop offset="0.69" stop-color="#4baad3" stop-opacity="0.88"/><stop offset="0.79" stop-color="#4ab3db" stop-opacity="0.95"/><stop offset="0.89" stop-color="#49b8e0" stop-opacity="0.99"/><stop offset="1" stop-color="#49bae2"/></linearGradient><linearGradient id="linear-gradient-2" x1="137" y1="-8154.17" x2="2151" y2="-8154.17" gradientTransform="translate(-350 9276)" gradientUnits="userSpaceOnUse"><stop offset="0" stop-color="#b8f8ff" stop-opacity="0.95"/><stop offset="0.15" stop-color="#b4f8ff" stop-opacity="0.94"/><stop offset="0.3" stop-color="#a6f9ff" stop-opacity="0.91"/><stop offset="0.45" stop-color="#91faff" stop-opacity="0.85"/><stop offset="0.61" stop-color="#72fbff" stop-opacity="0.78"/><stop offset="0.77" stop-color="#4afcff" stop-opacity="0.68"/><stop offset="0.92" stop-color="#1bfeff" stop-opacity="0.56"/><stop offset="1" stop-color="aqua" stop-opacity="0.5"/></linearGradient></defs><g class="cls-9"><rect id="iceberg-2" data-name="iceberg" class="cls-10" x="-212.5" y="-126.17" width="2013" height="2496" transform="translate(1588 2243.67) rotate(180)"/></g></svg>