<svg xmlns="http://www.w3.org/2000/svg" xmlns:xlink="http://www.w3.org/1999/xlink" viewBox="0 0 2014 2497"><defs><style>.cls-1,.cls-2,.cls-3,.cls-4,.cls-5,.cls-6,.cls-7,.cls-8{stroke:#fff;}.cls-1,.cls-10,.cls-2,.cls-3,.cls-4,.cls-5,.cls-6,.cls-7,.cls-8{stroke-miterlimit:10;}.cls-1,.cls-8{stroke-width:2px;}.cls-2{stroke-width:5px;}.cls-3{stroke-width:4px;}.cls-4,.cls-7{stroke-width:3px;}.cls-5{stroke-width:6px;}.cls-7,.cls-8{fill:none;}.cls-9{mask:url(#mask);}.cls-10{fill:url(#linear-gradient);stroke:url(#linear-gradient-2);}</style><mask id="mask" x="0" y="0" width="2014" height="2497" maskUnits="userSpaceOnUse"><g id="cityscape"><g id="hk-2"><path class="cls-1" d="M796.82,1636.22"/><rect class="cls-1" x="826.54" y="1735.03" width="66.62" height="66.62" transform="translate(1502.25 -90.07) rotate(45)"/><rect class="cls-1" x="826.54" y="1829.19" width="66.62" height="66.62" transform="translate(1568.83 -62.49) rotate(45)"/><rect class="cls-1" x="826.5" y="1923.77" width="66.62" height="66.62" transform="translate(1635.69 -34.76) rotate(45)"/><line class="cls-1" x1="812.51" y1="1957.02" x2="812.51" y2="1654.29"/><line class="cls-1" x1="907.38" y1="1956.79" x2="906.86" y2="1693.22"/><line class="cls-1" x1="859.65" y1="1719.1" x2="859.65" y2="2003.07"/><line class="cls-1" x1="849.3" y1="1993.37" x2="849.3" y2="2046.41"/><line class="cls-1" x1="866.12" y1="1997.25" x2="866.12" y2="2072.28"/></g><g id="hk-1"><ellipse class="cls-1" cx="738.36" cy="2079.87" rx="24.01" ry="26.87"/><rect class="cls-1" x="714.35" y="1749.4" width="48.03" height="332.65"/><rect class="cls-1" x="707.01" y="1730.52" width="62.7" height="332.65"/><rect class="cls-1" x="698.34" y="1695.65" width="80.04" height="332.65"/><rect class="cls-1" x="692.34" y="1630.29" width="92.05" height="332.65"/><rect class="cls-1" x="685" y="1531.51" width="106.73" height="332.65"/><line class="cls-1" x1="730.03" y1="1531.51" x2="730.03" y2="2111.1"/><line class="cls-1" x1="738.36" y1="1531.51" x2="738.36" y2="2111.1"/><line class="cls-1" x1="746.7" y1="1531.51" x2="746.7" y2="2111.1"/><path class="cls-1" d="M756.37,1531.51V2098s0,10.17-2.66,13.08"/><path class="cls-1" d="M720.35,1531.51V2098s0,10.17,2.67,13.08"/><line class="cls-2" x1="698.34" y1="1541.68" x2="778.39" y2="1541.68"/><line class="cls-2" x1="698.34" y1="1554.93" x2="778.39" y2="1554.93"/><line class="cls-2" x1="698.34" y1="1568.19" x2="778.39" y2="1568.19"/><line class="cls-2" x1="698.34" y1="1581.44" x2="778.39" y2="1581.44"/><line class="cls-2" x1="698.34" y1="1594.7" x2="778.39" y2="1594.7"/><line class="cls-2" x1="698.34" y1="1614.41" x2="778.39" y2="1614.41"/><line class="cls-2" x1="698.34" y1="1627.67" x2="778.39" y2="1627.67"/><line class="cls-2" x1="698.34" y1="1640.92" x2="778.39" y2="1640.92"/><line class="cls-2" x1="698.34" y1="1654.18" x2="778.39" y2="1654.18"/><line class="cls-2" x1="698.34" y1="1667.43" x2="778.39" y2="1667.43"/><line class="cls-2" x1="698.34" y1="1684.41" x2="778.39" y2="1684.41"/><line class="cls-2" x1="698.34" y1="1697.67" x2="778.39" y2="1697.67"/><line class="cls-2" x1="698.34" y1="1710.92" x2="778.39" y2="1710.92"/><line class="cls-2" x1="698.34" y1="1724.18" x2="778.39" y2="1724.18"/><line class="cls-2" x1="698.34" y1="1737.43" x2="778.39" y2="1737.43"/><line class="cls-2" x1="698.34" y1="1757.15" x2="778.39" y2="1757.15"/><line class="cls-2" x1="698.34" y1="1770.4" x2="778.39" y2="1770.4"/><line class="cls-2" x1="698.34" y1="1783.66" x2="778.39" y2="1783.66"/><line class="cls-2" x1="698.34" y1="1796.91" x2="778.39" y2="1796.91"/><line class="cls-2" x1="698.34" y1="1810.17" x2="778.39" y2="1810.17"/><line class="cls-2" x1="698.34" y1="1828.09" x2="778.39" y2="1828.09"/><line class="cls-2" x1="698.34" y1="1841.34" x2="778.39" y2="1841.34"/><line class="cls-2" x1="698.34" y1="1854.6" x2="778.39" y2="1854.6"/><line class="cls-2" x1="698.34" y1="1873.87" x2="778.39" y2="1873.87"/><line class="cls-2" x1="698.34" y1="1887.12" x2="778.39" y2="1887.12"/><line class="cls-2" x1="698.34" y1="1900.38" x2="778.39" y2="1900.38"/><line class="cls-2" x1="698.34" y1="1913.63" x2="778.39" y2="1913.63"/><line class="cls-2" x1="698.34" y1="1926.89" x2="778.39" y2="1926.89"/><line class="cls-2" x1="713.04" y1="1946.96" x2="762.36" y2="1946.96"/><line class="cls-2" x1="713.04" y1="1973.47" x2="762.36" y2="1973.47"/><line class="cls-2" x1="713.04" y1="1986.73" x2="762.36" y2="1986.73"/><line class="cls-2" x1="713.04" y1="1999.98" x2="762.36" y2="1999.98"/><line class="cls-2" x1="713.04" y1="2011.61" x2="762.36" y2="2011.61"/><line class="cls-2" x1="714.37" y1="2036.3" x2="763.69" y2="2036.3"/><line class="cls-2" x1="714.37" y1="2058.09" x2="763.69" y2="2058.09"/></g><g id="hk3"><line class="cls-3" x1="920.63" y1="1981.72" x2="990.49" y2="1981.72"/><line class="cls-4" x1="920.63" y1="1972.44" x2="990.49" y2="1972.44"/><line class="cls-4" x1="920.63" y1="1963.15" x2="990.49" y2="1963.15"/><line class="cls-4" x1="920.63" y1="1953.86" x2="990.49" y2="1953.86"/><line class="cls-4" x1="920.63" y1="1944.57" x2="990.49" y2="1944.57"/><line class="cls-4" x1="920.63" y1="1935.28" x2="990.49" y2="1935.28"/><line class="cls-4" x1="920.63" y1="1925.99" x2="990.49" y2="1925.99"/><line class="cls-4" x1="920.63" y1="1916.7" x2="990.49" y2="1916.7"/><line class="cls-4" x1="920.63" y1="1907.41" x2="990.49" y2="1907.41"/><line class="cls-4" x1="920.63" y1="1898.13" x2="990.49" y2="1898.13"/><line class="cls-4" x1="920.63" y1="1888.84" x2="990.49" y2="1888.84"/><line class="cls-4" x1="920.63" y1="1879.55" x2="990.49" y2="1879.55"/><line class="cls-4" x1="920.63" y1="1870.26" x2="990.49" y2="1870.26"/><line class="cls-4" x1="920.63" y1="1860.97" x2="990.49" y2="1860.97"/><line class="cls-4" x1="920.63" y1="1851.68" x2="990.49" y2="1851.68"/><line class="cls-4" x1="920.63" y1="1842.39" x2="990.49" y2="1842.39"/><line class="cls-4" x1="920.63" y1="1833.1" x2="990.49" y2="1833.1"/><line class="cls-4" x1="920.63" y1="1823.81" x2="989.42" y2="1823.81"/><line class="cls-4" x1="920.63" y1="1814.6" x2="980.53" y2="1814.45"/><line class="cls-4" x1="920.63" y1="1805.35" x2="971.64" y2="1805.12"/><line class="cls-4" x1="920.63" y1="1796.07" x2="963.38" y2="1795.83"/><line class="cls-4" x1="920.63" y1="1786.78" x2="954.86" y2="1786.54"/><line class="cls-4" x1="920.63" y1="1777.49" x2="947.1" y2="1777.25"/><line class="cls-4" x1="920.63" y1="1758.79" x2="929.56" y2="1758.79"/><line class="cls-4" x1="920.91" y1="1768.53" x2="937.87" y2="1768.3"/></g><g id="hk5"><line class="cls-5" x1="505.82" y1="1343.92" x2="505.82" y2="1763.09"/><line class="cls-2" x1="518.75" y1="1343.92" x2="518.75" y2="1763.09"/><line class="cls-3" x1="529.75" y1="1343.92" x2="529.75" y2="1763.09"/><line class="cls-4" x1="544.63" y1="1343.92" x2="544.63" y2="1763.09"/><line class="cls-1" x1="554.33" y1="1343.92" x2="554.33" y2="1763.09"/><line class="cls-6" x1="560.15" y1="1343.92" x2="560.15" y2="1763.09"/></g><g id="hk6"><g id="hk4"><line class="cls-3" x1="621.67" y1="1439.67" x2="577.73" y2="1439.66"/><line class="cls-4" x1="621.66" y1="1458.09" x2="577.72" y2="1458.08"/><line class="cls-4" x1="621.66" y1="1476.51" x2="577.72" y2="1476.5"/><line class="cls-4" x1="621.66" y1="1494.94" x2="577.72" y2="1494.93"/><line class="cls-4" x1="621.65" y1="1513.36" x2="577.71" y2="1513.35"/><line class="cls-4" x1="621.65" y1="1531.79" x2="577.71" y2="1531.78"/><line class="cls-4" x1="621.65" y1="1550.21" x2="577.71" y2="1550.2"/><line class="cls-4" x1="621.64" y1="1568.63" x2="577.7" y2="1568.62"/><line class="cls-4" x1="621.64" y1="1587.06" x2="577.7" y2="1587.05"/><line class="cls-4" x1="621.63" y1="1605.48" x2="577.7" y2="1605.47"/><line class="cls-4" x1="621.63" y1="1623.91" x2="577.69" y2="1623.9"/><line class="cls-4" x1="621.63" y1="1642.33" x2="577.69" y2="1642.32"/><line class="cls-4" x1="621.62" y1="1660.75" x2="577.69" y2="1660.74"/><line class="cls-4" x1="621.62" y1="1679.18" x2="577.68" y2="1679.17"/><line class="cls-4" x1="621.62" y1="1697.6" x2="577.68" y2="1697.59"/><line class="cls-4" x1="621.61" y1="1716.03" x2="577.68" y2="1716.01"/><line class="cls-4" x1="621.61" y1="1734.45" x2="577.67" y2="1734.44"/><line class="cls-4" x1="621.61" y1="1752.87" x2="578.34" y2="1752.86"/><line class="cls-4" x1="621.6" y1="1771.15" x2="583.93" y2="1771.43"/><line class="cls-4" x1="621.6" y1="1789.49" x2="589.52" y2="1789.94"/><line class="cls-4" x1="621.6" y1="1807.91" x2="594.71" y2="1808.37"/></g><g id="hk4-2" data-name="hk4"><line class="cls-3" x1="617.65" y1="1439.67" x2="661.59" y2="1439.66"/><line class="cls-4" x1="617.66" y1="1458.09" x2="661.6" y2="1458.08"/><line class="cls-4" x1="617.66" y1="1476.51" x2="661.6" y2="1476.5"/><line class="cls-4" x1="617.66" y1="1494.94" x2="661.6" y2="1494.93"/><line class="cls-4" x1="617.67" y1="1513.36" x2="661.61" y2="1513.35"/><line class="cls-4" x1="617.67" y1="1531.79" x2="661.61" y2="1531.78"/><line class="cls-4" x1="617.67" y1="1550.21" x2="661.61" y2="1550.2"/><line class="cls-4" x1="617.68" y1="1568.63" x2="661.62" y2="1568.62"/><line class="cls-4" x1="617.68" y1="1587.06" x2="661.62" y2="1587.05"/><line class="cls-4" x1="617.68" y1="1605.48" x2="661.62" y2="1605.47"/><line class="cls-4" x1="617.69" y1="1623.91" x2="661.63" y2="1623.9"/><line class="cls-4" x1="617.69" y1="1642.33" x2="661.63" y2="1642.32"/><line class="cls-4" x1="617.69" y1="1660.75" x2="661.63" y2="1660.74"/><line class="cls-4" x1="617.7" y1="1679.18" x2="661.64" y2="1679.17"/><line class="cls-4" x1="617.7" y1="1697.6" x2="661.64" y2="1697.59"/><line class="cls-4" x1="617.7" y1="1716.03" x2="661.64" y2="1716.02"/><line class="cls-4" x1="617.71" y1="1734.45" x2="661.65" y2="1734.44"/><line class="cls-4" x1="617.71" y1="1752.87" x2="660.98" y2="1752.86"/><line class="cls-4" x1="617.71" y1="1771.15" x2="655.39" y2="1771.43"/><line class="cls-4" x1="617.72" y1="1789.49" x2="649.8" y2="1789.94"/><line class="cls-4" x1="617.72" y1="1807.91" x2="644.61" y2="1808.37"/></g><line class="cls-6" x1="620.03" y1="1838.42" x2="620.03" y2="1892.46"/><line class="cls-4" x1="633.94" y1="1824.46" x2="606.13" y2="1824.46"/></g><g id="roger-center"><ellipse class="cls-1" cx="1289.36" cy="1787.98" rx="107.57" ry="39.27"/><ellipse class="cls-1" cx="1289.36" cy="1777.12" rx="107.57" ry="39.27"/><path class="cls-1" d="M1398.55,1798l-49.94-15.92a199.56,199.56,0,0,0-118.63-.23L1178.55,1798v-79.56h220Z"/><line class="cls-1" x1="1286.93" y1="1772.95" x2="1286.93" y2="1815.55"/><line class="cls-1" x1="1298.25" y1="1815.55" x2="1306.34" y2="1774.62"/><line class="cls-1" x1="1312.95" y1="1815.55" x2="1328.31" y2="1776.29"/><line class="cls-1" x1="1347.86" y1="1782.14" x2="1330.07" y2="1813.88"/><line class="cls-1" x1="1348.4" y1="1809.71" x2="1366.19" y2="1787.98"/><line class="cls-1" x1="1272.37" y1="1815.55" x2="1263.48" y2="1774.62"/><line class="cls-1" x1="1257" y1="1814.72" x2="1242.53" y2="1777.89"/><line class="cls-1" x1="1239.21" y1="1812.21" x2="1222.98" y2="1783.5"/><line class="cls-1" x1="1219.8" y1="1807.2" x2="1204.65" y2="1789.11"/><line class="cls-1" x1="1211.71" y1="1717.81" x2="1211.71" y2="1759.42"/><line class="cls-1" x1="1226.2" y1="1717.81" x2="1226.2" y2="1759.42"/><line class="cls-1" x1="1240.68" y1="1717.81" x2="1240.68" y2="1759.42"/><line class="cls-1" x1="1255.17" y1="1717.81" x2="1255.17" y2="1759.42"/><line class="cls-1" x1="1269.65" y1="1717.81" x2="1269.65" y2="1759.42"/><line class="cls-1" x1="1284.14" y1="1717.81" x2="1284.14" y2="1759.42"/><line class="cls-1" x1="1298.62" y1="1717.81" x2="1298.62" y2="1759.42"/><line class="cls-1" x1="1313.11" y1="1717.81" x2="1313.11" y2="1759.42"/><line class="cls-1" x1="1327.59" y1="1717.81" x2="1327.59" y2="1759.42"/><line class="cls-1" x1="1342.08" y1="1717.81" x2="1342.08" y2="1759.42"/><line class="cls-1" x1="1356.56" y1="1717.81" x2="1356.56" y2="1759.42"/><line class="cls-1" x1="1371.05" y1="1717.81" x2="1371.05" y2="1759.42"/><line class="cls-1" x1="1211.71" y1="1758.74" x2="1371.05" y2="1758.74"/></g><g id="cntower"><path class="cls-4" d="M1040.4,2234s8.17-202.1,11.18-269.28c2.57-57.34,13.27-228.8,13.27-228.8h-53.08s13.25,171.9,16.76,228.8C1032.7,2032.34,1040.4,2234,1040.4,2234Z"/><line class="cls-1" x1="1040.31" y1="1736.85" x2="1040.31" y2="2060.7"/><rect class="cls-1" x="1012.88" y="2095.33" width="54.05" height="27.25" rx="9.23"/><rect class="cls-1" x="1015.18" y="2063.55" width="49.45" height="27.25" rx="8.84"/><path class="cls-1" d="M1064.77,2112.67l-50.58-.24c-8.79,0-14.57-7.51-13-15.95l1.34-7.13c1.37-7.3,9.23-17.76,16.43-17.73l41.41.2c7.19,0,14.95,10.57,16.25,17.88l1.27,7.14C1079.42,2105.3,1073.56,2112.71,1064.77,2112.67Z"/><line class="cls-4" x1="1004.15" y1="2084.55" x2="1075.44" y2="2084.55"/><rect class="cls-4" x="1034.3" y="2126.27" width="11.64" height="48.7"/></g><g id="toronto3"><g id="hk5-2" data-name="hk5"><line class="cls-1" x1="1499.49" y1="1420.25" x2="1499.49" y2="1754.51"/><line class="cls-1" x1="1511.43" y1="1420.25" x2="1511.43" y2="1754.51"/><line class="cls-1" x1="1521.58" y1="1420.25" x2="1521.58" y2="1754.51"/><line class="cls-1" x1="1535.32" y1="1420.25" x2="1535.32" y2="1754.51"/><line class="cls-1" x1="1544.27" y1="1420.25" x2="1544.27" y2="1754.51"/><line class="cls-1" x1="1549.65" y1="1420.25" x2="1549.65" y2="1754.51"/></g><g id="hk3-2" data-name="hk3"><line class="cls-1" x1="1495.38" y1="1746.15" x2="1554.19" y2="1746.15"/><line class="cls-1" x1="1495.38" y1="1736.86" x2="1554.19" y2="1736.86"/><line class="cls-1" x1="1495.38" y1="1727.57" x2="1554.19" y2="1727.57"/><line class="cls-1" x1="1495.38" y1="1718.28" x2="1554.19" y2="1718.28"/><line class="cls-1" x1="1495.38" y1="1708.99" x2="1554.19" y2="1708.99"/><line class="cls-1" x1="1495.38" y1="1699.71" x2="1554.19" y2="1699.71"/><line class="cls-1" x1="1495.38" y1="1690.42" x2="1554.19" y2="1690.42"/><line class="cls-1" x1="1495.38" y1="1681.13" x2="1554.19" y2="1681.13"/><line class="cls-1" x1="1495.38" y1="1671.84" x2="1554.19" y2="1671.84"/><line class="cls-1" x1="1495.38" y1="1662.55" x2="1554.19" y2="1662.55"/><line class="cls-1" x1="1495.38" y1="1653.26" x2="1554.19" y2="1653.26"/><line class="cls-1" x1="1495.38" y1="1643.97" x2="1554.19" y2="1643.97"/><line class="cls-1" x1="1495.38" y1="1634.68" x2="1554.19" y2="1634.68"/><line class="cls-1" x1="1495.38" y1="1625.4" x2="1554.19" y2="1625.4"/><line class="cls-1" x1="1495.38" y1="1616.11" x2="1554.19" y2="1616.11"/><line class="cls-1" x1="1495.38" y1="1606.82" x2="1554.19" y2="1606.82"/><line class="cls-1" x1="1495.38" y1="1597.53" x2="1554.19" y2="1597.53"/><line class="cls-1" x1="1495.38" y1="1588.24" x2="1553.29" y2="1588.24"/><line class="cls-1" x1="1493.51" y1="1419.55" x2="1551.42" y2="1419.55"/><line class="cls-1" x1="1493.51" y1="1577.46" x2="1552.32" y2="1577.46"/><line class="cls-1" x1="1493.51" y1="1568.18" x2="1552.32" y2="1568.18"/><line class="cls-1" x1="1493.51" y1="1558.89" x2="1552.32" y2="1558.89"/><line class="cls-1" x1="1493.51" y1="1549.6" x2="1552.32" y2="1549.6"/><line class="cls-1" x1="1493.51" y1="1540.31" x2="1552.32" y2="1540.31"/><line class="cls-1" x1="1493.51" y1="1531.02" x2="1552.32" y2="1531.02"/><line class="cls-1" x1="1493.51" y1="1521.73" x2="1552.32" y2="1521.73"/><line class="cls-1" x1="1493.51" y1="1512.44" x2="1552.32" y2="1512.44"/><line class="cls-1" x1="1493.51" y1="1503.15" x2="1552.32" y2="1503.15"/><line class="cls-1" x1="1493.51" y1="1493.86" x2="1552.32" y2="1493.86"/><line class="cls-1" x1="1493.51" y1="1484.58" x2="1552.32" y2="1484.58"/><line class="cls-1" x1="1493.51" y1="1475.29" x2="1552.32" y2="1475.29"/><line class="cls-1" x1="1493.51" y1="1466" x2="1552.32" y2="1466"/><line class="cls-1" x1="1493.51" y1="1456.71" x2="1552.32" y2="1456.71"/><line class="cls-1" x1="1493.51" y1="1447.42" x2="1552.32" y2="1447.42"/><line class="cls-1" x1="1493.51" y1="1438.13" x2="1552.32" y2="1438.13"/><line class="cls-1" x1="1493.51" y1="1428.84" x2="1552.32" y2="1428.84"/></g></g><rect class="cls-1" x="1104.07" y="1976.03" width="51.05" height="20.7"/><rect class="cls-1" x="1076.17" y="1665.54" width="106.85" height="316.96"/><rect class="cls-1" x="1083.29" y="1952.74" width="92.6" height="20.7"/><rect class="cls-1" x="1083.29" y="1929.94" width="92.6" height="14.23"/><rect class="cls-1" x="1083.29" y="1906.49" width="92.6" height="14.23"/><rect class="cls-1" x="1083.29" y="1883.04" width="92.6" height="14.23"/><rect class="cls-1" x="1083.29" y="1859.59" width="92.6" height="14.23"/><rect class="cls-1" x="1083.29" y="1836.14" width="92.6" height="14.23"/><rect class="cls-1" x="1083.29" y="1812.7" width="92.6" height="14.23"/><rect class="cls-1" x="1083.29" y="1789.25" width="92.6" height="14.23"/><rect class="cls-1" x="1083.29" y="1765.8" width="92.6" height="14.23"/><rect class="cls-1" x="1083.29" y="1742.35" width="92.6" height="14.23"/><rect class="cls-1" x="1083.29" y="1718.9" width="92.6" height="14.23"/><rect class="cls-1" x="1083.29" y="1695.45" width="92.6" height="14.23"/><rect class="cls-1" x="1083.29" y="1672" width="92.6" height="14.23"/><line class="cls-1" x1="1104.17" y1="1982.5" x2="1104.17" y2="2016.13"/><line class="cls-1" x1="1155.22" y1="1982.5" x2="1155.22" y2="2035.54"/><g id="toronto3-2" data-name="toronto3"><g id="hk5-3" data-name="hk5"><line class="cls-1" x1="1425.58" y1="1490.27" x2="1424.39" y2="1824.52"/><line class="cls-1" x1="1437.73" y1="1490.33" x2="1436.54" y2="1824.58"/><line class="cls-1" x1="1448.05" y1="1490.38" x2="1446.86" y2="1824.63"/><line class="cls-1" x1="1462.01" y1="1490.44" x2="1460.82" y2="1824.7"/><line class="cls-1" x1="1471.12" y1="1490.49" x2="1469.93" y2="1824.75"/><line class="cls-1" x1="1476.58" y1="1490.51" x2="1475.39" y2="1824.77"/></g><g id="hk3-3" data-name="hk3"><line class="cls-1" x1="1420.25" y1="1816.14" x2="1480.04" y2="1816.43"/><line class="cls-1" x1="1420.28" y1="1806.85" x2="1480.07" y2="1807.15"/><line class="cls-1" x1="1420.31" y1="1797.57" x2="1480.11" y2="1797.86"/><line class="cls-1" x1="1420.35" y1="1788.28" x2="1480.14" y2="1788.57"/><line class="cls-1" x1="1420.38" y1="1778.99" x2="1480.17" y2="1779.28"/><line class="cls-1" x1="1420.41" y1="1769.7" x2="1480.21" y2="1769.99"/><line class="cls-1" x1="1420.44" y1="1760.41" x2="1480.24" y2="1760.7"/><line class="cls-1" x1="1420.48" y1="1751.12" x2="1480.27" y2="1751.41"/><line class="cls-1" x1="1420.51" y1="1741.83" x2="1480.31" y2="1742.12"/><line class="cls-1" x1="1420.54" y1="1732.54" x2="1480.34" y2="1732.84"/><line class="cls-1" x1="1420.58" y1="1723.26" x2="1480.37" y2="1723.55"/><line class="cls-1" x1="1420.61" y1="1713.97" x2="1480.41" y2="1714.26"/><line class="cls-1" x1="1420.64" y1="1704.68" x2="1480.44" y2="1704.97"/><line class="cls-1" x1="1420.68" y1="1695.39" x2="1480.47" y2="1695.68"/><line class="cls-1" x1="1420.71" y1="1686.1" x2="1480.51" y2="1686.39"/><line class="cls-1" x1="1420.74" y1="1676.81" x2="1480.54" y2="1677.1"/><line class="cls-1" x1="1420.78" y1="1667.52" x2="1480.57" y2="1667.81"/><line class="cls-1" x1="1420.81" y1="1658.23" x2="1479.69" y2="1658.52"/><line class="cls-1" x1="1419.51" y1="1489.54" x2="1478.39" y2="1489.83"/><line class="cls-1" x1="1418.95" y1="1647.45" x2="1478.74" y2="1647.74"/><line class="cls-1" x1="1418.98" y1="1638.16" x2="1478.78" y2="1638.45"/><line class="cls-1" x1="1419.01" y1="1628.87" x2="1478.81" y2="1629.16"/><line class="cls-1" x1="1419.05" y1="1619.58" x2="1478.84" y2="1619.87"/><line class="cls-1" x1="1419.08" y1="1610.3" x2="1478.87" y2="1610.59"/><line class="cls-1" x1="1419.11" y1="1601.01" x2="1478.91" y2="1601.3"/><line class="cls-1" x1="1419.15" y1="1591.72" x2="1478.94" y2="1592.01"/><line class="cls-1" x1="1419.18" y1="1582.43" x2="1478.97" y2="1582.72"/><line class="cls-1" x1="1419.21" y1="1573.14" x2="1479.01" y2="1573.43"/><line class="cls-1" x1="1419.24" y1="1563.85" x2="1479.04" y2="1564.14"/><line class="cls-1" x1="1419.28" y1="1554.56" x2="1479.07" y2="1554.85"/><line class="cls-1" x1="1419.31" y1="1545.27" x2="1479.11" y2="1545.56"/><line class="cls-1" x1="1419.34" y1="1535.99" x2="1479.14" y2="1536.28"/><line class="cls-1" x1="1419.38" y1="1526.7" x2="1479.17" y2="1526.99"/><line class="cls-1" x1="1419.41" y1="1517.41" x2="1479.21" y2="1517.7"/><line class="cls-1" x1="1419.44" y1="1508.12" x2="1479.24" y2="1508.41"/><line class="cls-1" x1="1419.48" y1="1498.83" x2="1479.27" y2="1499.12"/></g></g><path class="cls-1" d="M1614,1645"/><rect class="cls-1" x="1578.16" y="1362.8" width="47.87" height="234.88" transform="translate(3204.19 2960.49) rotate(180)"/><path class="cls-1" d="M1629.15,1597.49a11.85,11.85,0,0,0,0-4.15c-.44-1.56-19.6-9.35-51.69-1.56,0,0-4.9,1.56-2.22,6.23,2.58,4.51.44,0,.44,0Z"/><path class="cls-1" d="M1575.65,1597.94s5.83-3.5,26.11-3.58c20.49-.08,26.72,3.37,26.72,3.37l-26.06,53.76Z"/><line class="cls-1" x1="1602.42" y1="1594.37" x2="1602.42" y2="1650.45"/><line class="cls-1" x1="1602.42" y1="1649.93" x2="1586.38" y2="1595.41"/><line class="cls-1" x1="1615.78" y1="1594.89" x2="1602.42" y2="1649.93"/><line class="cls-1" x1="1602.42" y1="1651.49" x2="1602.42" y2="1667.06"/><ellipse class="cls-1" cx="1602.42" cy="1660.31" rx="1.34" ry="1.56"/><path class="cls-1" d="M1584.15,1560.57v-.35h35.19c0,.11,0,.23,0,.35,0,12.08-7.88,21.86-17.6,21.86S1584.15,1572.65,1584.15,1560.57Z"/><rect class="cls-1" x="1584.15" y="1516.49" width="34.64" height="38.87" transform="translate(3202.94 3071.85) rotate(180)"/><line class="cls-1" x1="1601.47" y1="1516.49" x2="1601.47" y2="1554.67"/><line class="cls-1" x1="1618.79" y1="1535.93" x2="1584.15" y2="1535.93"/><rect class="cls-1" x="1583.7" y="1457.3" width="35.65" height="46.21" transform="translate(3203.05 2960.81) rotate(180)"/><rect class="cls-1" x="1583.7" y="1398.63" width="35.65" height="46.21" transform="translate(3203.05 2843.47) rotate(180)"/><line class="cls-1" x1="1619.35" y1="1481.19" x2="1584.15" y2="1481.19"/><line class="cls-1" x1="1619.35" y1="1420.96" x2="1584.15" y2="1420.96"/></g><polygon id="hide" points="441.07 1324.64 540.6 1380.93 668.76 1688.18 732.76 1590.92 853.12 1744.45 910.04 1718.58 999.31 1819.49 1058.82 1791.03 1179.13 1771.62 1207.6 1712.11 1246.58 1733.64 1256.76 1721.16 1330.71 1754.68 1355.08 1701.76 1390.01 1728.93 1461.42 1521.81 1580.19 1411.97 1628.06 1358.92 1695.33 1334.34 1668.16 1282.59 441.07 1324.64"/><g id="iceberg"><polyline class="cls-7" points="613.16 975.54 831.8 756.9 765.82 631.41 857.68 644.35 975.41 740.08 1123.42 694.62 1090.55 881.1 1058.2 976.84 975.41 793.13 975.41 741.38 1040.09 631.41 1015.51 556.38 842.15 439.94 825.34 635.29 1023.27 580.96 1178.52 754.32 1091.84 881.1 1239.33 856.52 1298.84 904.39 1398.45 803.48 1472.19 833.23 1463.14 892.74 1539.47 967.78 1428.21 966.49 1461.85 892.74 1280.72 972.95 1304.01 886.27 1371.29 707.74 1272.96 582.25 1243.21 855.23 1181.11 753.02 1263.14 589.83 1231.56 624.94 1155.23 353.26 1113.83 371.37 1086.67 310.57 994.81 160.5 895.2 472.28 1050.97 530.31 1042.68 602.95"/><line class="cls-4" x1="829.22" y1="758.2" x2="977.99" y2="794.42"/><polyline class="cls-7" points="997.4 844.88 614.38 976.61 499.32 1019.53 725.72 979.42 877.08 970.37 997.4 844.88"/><path class="cls-4" d="M1233.39,624.76,1146.9,717.3l33.45-280.13c0-.46-65.79-63.81-66-63.4L1051,530.31"/><path class="cls-7" d="M1151.35,1101,1058.2,976.84,949.53,1125.61,877.08,970.37l-165.59,132L930.13,1321l-66,125.49L956,1433.52l117.73-95.74,66,9.06,49.16-150.07L1156.53,1101l-82.8,183.71v51.75l64.69,110-24.59,75L940.48,1637.93l-16.82-195.36,197.94,54.34,155.24-173.36-86.68-126.78,147.49,24.58,59.51-47.87,99.62,100.91,73.74-29.75-9.06-59.52,73.06-72.72a.7.7,0,0,0-.5-1.2l-107.49.18,33.64,73.74-181.12-80.21,23.28,86.68,67.28,178.54-98.33,125.49-29.75-273-62.1,102.21,85.39,151.36-34.93-23.29-76.33,271.69-41.4-18.12L1185,1767.3l-133.87,26.19-57.6-187.91,122.9,81.51L1141,1474.92"/><polyline class="cls-7" points="711.49 1102.33 410.05 1120.44 499.32 1019.53 602.05 809.76 343.31 1003.82"/><polygon class="cls-7" points="864.15 1446.46 824.4 1217.86 628.69 1170.89 539.95 1372.53 834.39 1636.63 864.15 1446.46"/><line class="cls-4" x1="541.25" y1="1373.82" x2="433.87" y2="1318.19"/><polyline class="cls-7" points="824.04 1217.47 949.53 1125.61 930.13 1320.96"/><line class="cls-4" x1="1073.73" y1="1284.74" x2="949.53" y2="1125.61"/><polyline class="cls-7" points="1258.68 1715.76 1335.09 1748.86 1358.38 1694.52 1397.19 1724.27 1520.09 1328.4 1557.61 1378.85 1565.16 1245.51 1496.81 1274.06 1469.64 1369.8 1371.32 1495.29 1358.38 1689.34 1283.34 1611.72 1196.02 1417.02 1124.96 1637.64 1212.19 1706.16 1116.45 1686.76 1050.76 1793.28 940.48 1637.93 834.39 1636.63 1049.83 1792.19 1003.25 1820.66 914.8 1716.09"/><polyline class="cls-7" points="676.56 1503.38 856.38 1746.6 903.87 1721.64 932.1 1706.81"/><polyline class="cls-7" points="547.96 1384.63 673.97 1681.91 737.26 1585.95 662.14 1480.78"/><path class="cls-7" d="M800.36,705.59l-165.2,42.26-36.23,66L424.28,873.34l-84.09,135.84,69.86,120.31,176,141L434.37,1318a.2.2,0,0,1-.23-.29l69.59-113.4"/><line class="cls-4" x1="1342.06" y1="785.18" x2="1398.45" y2="803.48"/><polyline class="cls-7" points="1635.74 1109.9 1723.01 955.68 1641.67 954.84 1564.05 895.33 1514.89 886.27 1472.19 833.23"/><path class="cls-7" d="M1557.56,1057.11l82.16-101a.72.72,0,0,0-.67-1.18l-99,14.41-383,131.73L1280.72,973l181.13,20.7,171.2,114.89a0,0,0,0,1,0,.07l-106.5,2.77-147.48-6.47"/><polyline class="cls-8" points="1460.29 1520.64 1630.64 1356.34 1700.5 1330.46 1672.04 1276.13 1656.52 1170.04 1615.68 1149.36 1656.6 1073.93 1564.66 1245.08 1630.64 1355.04 1672.04 1274.83"/><polyline class="cls-7" points="388.02 1091.77 288.41 1184.92 220.41 1196.58 84 1244.43 470.09 1258.68 433.87 1318.19 269 1296.18 215.96 1269.01 131.14 1247.04"/><line class="cls-4" x1="267.71" y1="1296.18" x2="435.16" y2="1257.38"/><line class="cls-4" x1="290.27" y1="1184.94" x2="471.39" y2="1257.38"/><path class="cls-4" d="M288.41,1186.21"/><polyline class="cls-4" points="1617.96 1149.34 1655.87 1169.39 1771.01 1243.14 1926.49 1243.03 1717.47 1179.65"/><line class="cls-4" x1="1700.42" y1="1329.83" x2="1842.73" y2="1243.15"/></g><line class="cls-7" x1="540.6" y1="1373.17" x2="848.51" y2="1340.83"/><line class="cls-7" x1="1321.36" y1="1042.63" x2="1380.87" y2="1100.84"/><line class="cls-7" x1="1683.6" y1="1187.52" x2="1798.74" y2="1162.94"/><line class="cls-7" x1="1878.96" y1="1228.92" x2="1797.45" y2="1162.94"/><line class="cls-7" x1="220.41" y1="1196.58" x2="382.12" y2="1084.03"/><line class="cls-7" x1="1797.45" y1="1164.24" x2="1737.94" y2="1037.45"/><line class="cls-7" x1="1655.14" y1="1076.26" x2="1737.94" y2="1037.45"/><line class="cls-7" x1="1723.71" y1="954.65" x2="1737.94" y2="1037.45"/><path class="cls-7" d="M1141.53,715.32"/><path class="cls-7" d="M1233.39,623.46"/><line class="cls-7" x1="1065.2" y1="494.09" x2="995.34" y2="164.19"/></mask><linearGradient id="linear-gradient" x1="1010.78" y1="205.52" x2="1003.49" y2="2218.5" gradientUnits="userSpaceOnUse"><stop offset="0" stop-color="#bce8dc" stop-opacity="0.95"/><stop offset="0.16" stop-color="#bbe8dc" stop-opacity="0.94"/><stop offset="0.25" stop-color="#b9e6dc" stop-opacity="0.91"/><stop offset="0.32" stop-color="#b5e4dd" stop-opacity="0.85"/><stop offset="0.38" stop-color="#aee0dd" stop-opacity="0.78"/><stop offset="0.44" stop-color="#a7dbde" stop-opacity="0.68"/><stop offset="0.49" stop-color="#9dd6df" stop-opacity="0.55"/><stop offset="0.51" stop-color="#99d3df" stop-opacity="0.5"/><stop offset="0.68" stop-color="#7fcbe0" stop-opacity="0.66"/><stop offset="1" stop-color="#49bae2"/></linearGradient><linearGradient id="linear-gradient-2" y1="1248.5" x2="2014" y2="1248.5" gradientUnits="userSpaceOnUse"><stop offset="0" stop-color="#b8f8ff" stop-opacity="0.95"/><stop offset="0.15" stop-color="#b4f8ff" stop-opacity="0.94"/><stop offset="0.3" stop-color="#a6f9ff" stop-opacity="0.91"/><stop offset="0.45" stop-color="#91faff" stop-opacity="0.85"/><stop offset="0.61" stop-color="#72fbff" stop-opacity="0.78"/><stop offset="0.77" stop-color="#4afcff" stop-opacity="0.68"/><stop offset="0.92" stop-color="#1bfeff" stop-opacity="0.56"/><stop offset="1" stop-color="aqua" stop-opacity="0.5"/></linearGradient></defs><g id="Layer_2" data-name="Layer 2"><g id="Layer_6" data-name="Layer 6"><g class="cls-9"><rect class="cls-10" x="0.5" y="0.5" width="2013" height="2496"/></g></g></g></svg>