<svg xmlns="http://www.w3.org/2000/svg" viewBox="0 0 560.41 81.82"><defs><style>.cls-1{fill:#636368;}.cls-2{fill:#f0980f;}</style></defs><g id="Layer_2" data-name="Layer 2"><g id="Layer_10" data-name="Layer 10"><g id="logo-text"><path class="cls-1" d="M19.25,79.88,0,2.17V1.94c0-.68.4-1,1.19-1H8.63c.88,0,1.37.35,1.46,1L24.43,65.82c.09.15.17.23.26.23s.18-.08.27-.23L39.16,1.94a1.35,1.35,0,0,1,1.47-1h7.16q1.47,0,1.2,1.26L29.74,79.88c-.09.68-.58,1-1.46,1H20.71A1.33,1.33,0,0,1,19.25,79.88Z"/><path class="cls-1" d="M63.19,79.76V2.06c0-.76.45-1.15,1.33-1.15h6.77c.89,0,1.33.39,1.33,1.15v77.7c0,.76-.44,1.14-1.33,1.14H64.52C63.64,80.9,63.19,80.52,63.19,79.76Z"/><path class="cls-1" d="M95.65,76.45q-6.16-5.37-6.17-14.4V19.65q0-8.91,6.17-14.28T112.05,0q10.35,0,16.53,5.31t6.17,14.34v2c0,.76-.44,1.14-1.33,1.14l-6.9.34c-.88,0-1.33-.38-1.33-1.14V19.08a11.26,11.26,0,0,0-3.58-8.68Q118,7.08,112.05,7.08a13.56,13.56,0,0,0-9.49,3.32,11.15,11.15,0,0,0-3.65,8.68V62.73a11.15,11.15,0,0,0,3.65,8.69,13.55,13.55,0,0,0,9.49,3.31q6,0,9.56-3.31a11.27,11.27,0,0,0,3.58-8.69V59.88c0-.76.45-1.15,1.33-1.15l6.9.35c.89,0,1.33.38,1.33,1.14v1.83q0,9-6.24,14.4t-16.46,5.37Q101.82,81.82,95.65,76.45Z"/><path class="cls-1" d="M193,2.06v4.8Q193,8,191.71,8H174.18c-.35,0-.53.15-.53.46v71.3c0,.76-.44,1.14-1.33,1.14h-6.77q-1.32,0-1.32-1.14V8.46c0-.31-.18-.46-.54-.46H147.23c-.88,0-1.33-.38-1.33-1.14V2.06c0-.76.45-1.15,1.33-1.15h44.48C192.59.91,193,1.3,193,2.06Z"/><path class="cls-1" d="M207,76.33q-6.3-5.47-6.31-14.51V20q0-9,6.31-14.52T223.57,0q10.35,0,16.73,5.48A18.21,18.21,0,0,1,246.67,20V61.82a18.26,18.26,0,0,1-6.37,14.46q-6.37,5.53-16.73,5.54T207,76.33Zm26.42-5.08a11.67,11.67,0,0,0,3.78-9V19.65a11.77,11.77,0,0,0-3.78-9.08,14,14,0,0,0-9.89-3.49,13.6,13.6,0,0,0-9.69,3.49,11.87,11.87,0,0,0-3.72,9.08V62.28a11.76,11.76,0,0,0,3.72,9,13.6,13.6,0,0,0,9.69,3.48A14,14,0,0,0,233.46,71.25Z"/><path class="cls-1" d="M299.11,80,285.57,44.68a.52.52,0,0,0-.53-.34H273.49c-.36,0-.53.15-.53.45v35c0,.76-.45,1.14-1.33,1.14h-6.77c-.89,0-1.33-.38-1.33-1.14V2.06c0-.76.44-1.15,1.33-1.15h21.9q9.69,0,15.67,6.12t6,15.94a22,22,0,0,1-3.71,12.8,19.68,19.68,0,0,1-10.09,7.54c-.36.07-.49.27-.4.57l14.47,35.77.13.45c0,.54-.4.8-1.19.8H300.7A1.56,1.56,0,0,1,299.11,80ZM273,8.46V37.37c0,.3.17.45.53.45h11.95a12.69,12.69,0,0,0,9.82-4Q299,29.71,299,23c0-4.5-1.24-8.11-3.72-10.86A12.6,12.6,0,0,0,285.44,8H273.49C273.13,8,273,8.15,273,8.46Z"/><path class="cls-1" d="M322.34,79.76V2.06c0-.76.44-1.15,1.33-1.15h6.77c.88,0,1.33.39,1.33,1.15v77.7c0,.76-.45,1.14-1.33,1.14h-6.77C322.78,80.9,322.34,80.52,322.34,79.76Z"/><path class="cls-1" d="M384.47,79.88l-3.31-14.17a.38.38,0,0,0-.2-.35,1,1,0,0,0-.47-.11h-24a1,1,0,0,0-.46.11.37.37,0,0,0-.2.35l-3.32,14.17c-.09.68-.58,1-1.46,1h-6.77a1.32,1.32,0,0,1-1-.34.92.92,0,0,1-.2-.91L363,1.94a1.33,1.33,0,0,1,1.46-1h8c.89,0,1.37.35,1.46,1L394,79.65v.23c0,.68-.39,1-1.19,1h-6.9A1.34,1.34,0,0,1,384.47,79.88ZM357.92,58.62h21c.26,0,.4-.15.4-.46l-10.62-44.9c-.09-.23-.18-.35-.27-.35s-.18.12-.27.35l-10.62,44.9C357.52,58.47,357.66,58.62,357.92,58.62Z"/><path class="cls-1" d="M467.32.91h6.77c.88,0,1.32.39,1.32,1.15v77.7q0,1.14-1.32,1.14h-6.77c-.89,0-1.33-.38-1.33-1.14V44.91c0-.31-.18-.46-.53-.46H441.83c-.36,0-.54.15-.54.46V79.76q0,1.14-1.32,1.14H433.2c-.89,0-1.33-.38-1.33-1.14V2.06c0-.76.44-1.15,1.33-1.15H440c.88,0,1.32.39,1.32,1.15V36.79c0,.31.18.46.54.46h23.63c.35,0,.53-.15.53-.46V2.06C466,1.3,466.43.91,467.32.91Z"/></g><circle class="cls-2" cx="524.41" cy="40.75" r="36"/></g></g></svg>