<svg xmlns="http://www.w3.org/2000/svg" viewBox="0 0 485 82">
  <defs>
    <style>
      .cls-1{fill:#636368}
    </style>
  </defs>
  <g id="Layer_2" data-name="Layer 2">
    <g id="Layer_10" data-name="Layer 10">
      <g id="logo-text">
        <path class="cls-1" d="M17 80L0 2a1 1 0 011-1h6a1 1 0 012 1l12 64L34 2a1 1 0 011-1h6l1 1-16 78a1 1 0 01-2 1h-6a1 1 0 01-1-1zM54 80V2a1 1 0 012-1h5a1 1 0 012 1v78a1 1 0 01-2 1h-5a1 1 0 01-2-1zM82 76q-5-5-5-14V20q0-9 5-15t14-5q9 0 15 5t5 15v2a1 1 0 01-1 1h-6a1 1 0 01-1-1v-3a12 12 0 00-3-9 12 12 0 00-17 0 12 12 0 00-3 9v44a12 12 0 003 8 12 12 0 0017 0 12 12 0 003-8v-3a1 1 0 011-1h6a1 1 0 011 1v2q0 9-5 14t-15 6q-8 0-14-6zM166 2v5a1 1 0 01-1 1h-15-1v72a1 1 0 01-1 1h-6a1 1 0 01-1-1V8h-14a1 1 0 01-1-1V2a1 1 0 011-1h38a1 1 0 011 1zM178 76q-5-5-5-14V20q0-9 5-15t14-5q9 0 15 5t5 15v42q0 9-5 14t-15 6q-8 0-14-6zm23-5a13 13 0 003-9V20a13 13 0 00-3-9 11 11 0 00-9-4 11 11 0 00-8 4 13 13 0 00-3 9v42a13 13 0 003 9 11 11 0 008 4 11 11 0 009-4zM257 80l-11-35-1-1h-10v36a1 1 0 01-1 1h-6a1 1 0 01-1-1V2a1 1 0 011-1h19a17 17 0 0113 6q5 6 5 16a25 25 0 01-3 13 17 17 0 01-8 7l-1 1 13 36-1 1h-6a1 1 0 01-2-1zM235 8v30h11a10 10 0 008-4q3-4 3-11c0-4-1-8-3-11a10 10 0 00-8-4h-11zM277 80V2a1 1 0 012-1h5a1 1 0 012 1v78a1 1 0 01-2 1h-5a1 1 0 01-2-1zM331 80l-3-14v-1a1 1 0 00-1 0h-20a1 1 0 00-1 0v1l-3 14a1 1 0 01-1 1h-6a1 1 0 01-1 0 1 1 0 010-1l17-78a1 1 0 012-1h7a1 1 0 011 1l17 78a1 1 0 01-1 1h-6a1 1 0 01-1-1zm-23-21h18v-1l-9-45-9 45v1zM402 1h6a1 1 0 011 1v78a1 1 0 01-1 1h-6a1 1 0 01-1-1V45v-1h-21v36a1 1 0 01-1 1h-6a1 1 0 01-1-1V2a1 1 0 011-1h6a1 1 0 011 1v35h21V2a1 1 0 011-1z"/>
      </g>
      <circle cx="453.4" cy="40.9" r="32" fill="#f0980f"/>
    </g>
  </g>
</svg>
